# Blender 4.1.1
# www.blender.org
o ID-0464-2EE13F53-64E4-10BF-E053-CA2BA8C063B3
v 504554.625000 532332.687500 60.919807
v 504542.562500 532323.000000 60.919811
v 504566.843750 532329.437500 60.919807
v 504562.750000 532317.312500 60.919811
v 504562.750000 532317.312500 71.369812
v 504554.625000 532332.687500 71.369812
v 504566.843750 532329.437500 71.369812
v 504545.968750 532335.062500 60.919807
v 504545.968750 532335.062500 71.369812
v 504542.562500 532323.000000 71.369812
vn -0.0000 -0.0000 -1.0000
vn 0.9470 -0.3214 -0.0000
vn 0.2565 0.9666 -0.0000
vn 0.2631 0.9648 -0.0000
vn 0.2658 0.9640 -0.0000
vn -0.9635 0.2675 -0.0000
vn -0.9616 0.2746 -0.0000
vn -0.2711 -0.9625 -0.0000
vn -0.0000 -0.0000 1.0000
s 0
f 1//1 2//1 8//1
f 3//1 4//1 1//1
f 2//1 1//1 4//1
f 5//2 4//2 3//2
f 3//2 7//2 5//2
f 3//3 1//3 6//3
f 6//3 7//3 3//3
f 1//4 8//4 9//4
f 9//5 6//5 1//5
f 8//6 2//6 10//6
f 10//7 9//7 8//7
f 10//8 2//8 4//8
f 4//8 5//8 10//8
f 9//9 10//9 6//9
f 6//9 5//9 7//9
f 5//9 6//9 10//9
