# Blender 4.1.1
# www.blender.org
o ID-0464-2EE13F53-6320-10BF-E053-CA2BA8C063B3
v 504507.406250 532302.250000 61.309811
v 504512.125000 532310.250000 61.309811
v 504519.531250 532302.875000 61.309811
v 504519.781250 532305.187500 61.309811
v 504515.468750 532311.312500 61.309811
v 504507.031250 532322.562500 61.309811
v 504512.312500 532316.250000 61.309811
v 504511.187500 532321.625000 61.309811
v 504514.125000 532320.937500 61.309811
v 504517.406250 532310.500000 61.309811
v 504513.750000 532310.312500 61.309811
v 504529.656250 532308.500000 61.309811
v 504527.406250 532301.812500 61.309811
v 504534.593750 532298.875000 61.309811
v 504526.875000 532299.625000 61.309811
v 504531.562500 532290.500000 61.309811
v 504539.000000 532311.187500 61.309811
v 504524.156250 532311.562500 61.309811
v 504520.250000 532313.125000 61.309811
v 504529.093750 532309.625000 61.309811
v 504534.562500 532312.875000 61.309811
v 504506.250000 532303.187500 61.309811
v 504507.031250 532322.562500 72.119812
v 504506.250000 532303.187500 72.119820
v 504507.406250 532302.250000 72.119820
v 504531.562500 532290.500000 72.119820
v 504534.593750 532298.875000 72.119820
v 504539.000000 532311.187500 72.119812
v 504519.968750 532318.625000 61.309811
v 504534.562500 532312.875000 72.119812
v 504514.125000 532320.937500 72.119812
v 504511.187500 532321.625000 72.119812
v 504512.312500 532316.250000 72.119812
v 504520.250000 532313.125000 72.119812
v 504521.187500 532311.437500 61.309811
v 504522.406250 532310.937500 61.309811
v 504522.406250 532310.937500 72.119812
v 504524.156250 532311.562500 72.119812
v 504529.093750 532309.625000 72.119812
v 504527.531250 532301.750000 72.119820
v 504526.875000 532299.625000 72.119820
v 504519.531250 532302.875000 72.119820
v 504519.156250 532306.000000 61.309811
v 504516.687500 532307.000000 72.119812
v 504516.687500 532307.000000 61.309811
v 504516.812500 532309.000000 61.309811
v 504516.812500 532309.000000 72.119812
v 504515.468750 532311.312500 72.119812
v 504517.406250 532310.500000 72.119812
v 504514.875000 532309.812500 61.309811
v 504513.750000 532310.312500 72.119812
v 504514.875000 532309.812500 72.119812
v 504512.125000 532310.250000 72.119812
v 504519.781250 532305.187500 72.119812
v 504519.156250 532306.000000 72.119812
v 504519.968750 532318.625000 72.119812
v 504529.656250 532308.500000 72.119812
v 504521.187500 532311.437500 72.119812
vn -0.0000 -0.0000 -1.0000
vn -0.9993 0.0382 -0.0000
vn -0.9991 0.0429 -0.0000
vn -0.6148 -0.7887 -0.0000
vn -0.6452 -0.7640 -0.0000
vn -0.4362 -0.8998 -0.0000
vn -0.4376 -0.8992 -0.0000
vn 0.9428 -0.3333 -0.0000
vn 0.9395 -0.3425 -0.0000
vn 0.9407 -0.3392 -0.0000
vn 0.9429 -0.3330 -0.0000
vn 0.3553 0.9348 -0.0000
vn 0.3552 0.9348 -0.0000
vn 0.3681 0.9298 -0.0000
vn 0.3661 0.9306 -0.0000
vn 0.3688 0.9295 -0.0000
vn 0.2262 0.9741 -0.0000
vn 0.2152 0.9766 -0.0000
vn 0.2244 0.9745 -0.0000
vn -0.3656 -0.9308 -0.0000
vn -0.8769 -0.4807 -0.0000
vn -0.3602 -0.9329 -0.0000
vn -0.3839 -0.9234 -0.0000
vn 0.3350 -0.9422 -0.0000
vn 0.3514 -0.9362 -0.0000
vn -0.3616 -0.9323 -0.0000
vn -0.3675 -0.9300 -0.0000
vn -0.8968 -0.4425 -0.0000
vn -0.9490 0.3151 0.0107
vn -0.9537 0.3006 -0.0000
vn -0.9693 0.2459 -0.0000
vn -0.9565 0.2915 0.0156
vn 0.4063 0.9137 -0.0000
vn 0.9968 -0.0798 -0.0000
vn 0.9929 -0.1192 -0.0000
vn 0.7820 0.6233 -0.0000
vn 0.3717 0.9284 -0.0000
vn 0.3839 0.9234 -0.0000
vn 0.9989 -0.0462 -0.0000
vn 0.9957 -0.0921 -0.0000
vn 0.9379 -0.3470 -0.0000
vn 0.9181 -0.3963 -0.0000
vn 0.3859 0.9226 -0.0000
vn -0.9181 0.3963 -0.0000
vn -0.9379 0.3470 -0.0000
vn 0.4107 0.9118 -0.0000
vn -0.0375 0.9993 -0.0000
vn 0.9995 -0.0308 -0.0000
vn -0.0000 -0.0000 1.0000
s 0
f 1//1 22//1 2//1
f 46//1 45//1 50//1
f 2//1 45//1 1//1
f 45//1 3//1 1//1
f 45//1 2//1 50//1
f 43//1 4//1 3//1
f 3//1 45//1 43//1
f 3//1 16//1 1//1
f 5//1 46//1 50//1
f 6//1 7//1 2//1
f 7//1 6//1 8//1
f 8//1 9//1 7//1
f 22//1 6//1 2//1
f 10//1 46//1 5//1
f 7//1 9//1 29//1
f 11//1 50//1 2//1
f 14//1 13//1 12//1
f 14//1 15//1 13//1
f 16//1 15//1 14//1
f 16//1 3//1 15//1
f 17//1 14//1 12//1
f 18//1 35//1 19//1
f 19//1 29//1 18//1
f 7//1 29//1 19//1
f 36//1 35//1 18//1
f 20//1 21//1 12//1
f 17//1 12//1 21//1
f 29//1 21//1 18//1
f 20//1 18//1 21//1
f 6//2 22//2 24//2
f 24//3 23//3 6//3
f 24//4 22//4 1//4
f 1//5 25//5 24//5
f 25//6 1//6 16//6
f 16//7 26//7 25//7
f 26//8 16//8 14//8
f 14//9 27//9 26//9
f 27//10 14//10 17//10
f 17//11 28//11 27//11
f 17//12 21//12 30//12
f 30//13 28//13 17//13
f 21//14 29//14 56//14
f 56//15 30//15 21//15
f 29//16 9//16 31//16
f 31//16 56//16 29//16
f 9//17 8//17 32//17
f 32//17 31//17 9//17
f 8//18 6//18 23//18
f 23//19 32//19 8//19
f 33//20 7//20 19//20
f 19//20 34//20 33//20
f 34//21 19//21 35//21
f 35//21 58//21 34//21
f 58//22 35//22 36//22
f 36//23 37//23 58//23
f 37//24 36//24 18//24
f 18//25 38//25 37//25
f 38//26 18//26 20//26
f 20//27 39//27 38//27
f 39//28 20//28 12//28
f 12//28 57//28 39//28
f 12//29 13//29 40//29
f 40//30 57//30 12//30
f 13//31 15//31 41//31
f 41//32 40//32 13//32
f 15//33 3//33 42//33
f 42//33 41//33 15//33
f 42//34 3//34 4//34
f 4//35 54//35 42//35
f 4//36 43//36 55//36
f 55//36 54//36 4//36
f 43//37 45//37 44//37
f 44//38 55//38 43//38
f 44//39 45//39 46//39
f 46//40 47//40 44//40
f 47//41 46//41 10//41
f 10//42 49//42 47//42
f 10//43 5//43 48//43
f 48//43 49//43 10//43
f 5//44 50//44 52//44
f 52//45 48//45 5//45
f 50//46 11//46 51//46
f 51//46 52//46 50//46
f 11//47 2//47 53//47
f 53//47 51//47 11//47
f 53//48 2//48 7//48
f 7//48 33//48 53//48
f 53//49 24//49 25//49
f 52//49 44//49 47//49
f 25//49 44//49 53//49
f 25//49 42//49 44//49
f 52//49 53//49 44//49
f 42//49 54//49 55//49
f 55//49 44//49 42//49
f 25//49 26//49 42//49
f 52//49 47//49 48//49
f 53//49 33//49 23//49
f 32//49 23//49 33//49
f 33//49 31//49 32//49
f 53//49 23//49 24//49
f 48//49 47//49 49//49
f 56//49 31//49 33//49
f 53//49 52//49 51//49
f 57//49 40//49 27//49
f 40//49 41//49 27//49
f 27//49 41//49 26//49
f 41//49 42//49 26//49
f 57//49 27//49 28//49
f 34//49 58//49 38//49
f 38//49 56//49 34//49
f 34//49 56//49 33//49
f 38//49 58//49 37//49
f 57//49 30//49 39//49
f 30//49 57//49 28//49
f 38//49 30//49 56//49
f 30//49 38//49 39//49
