# Blender 4.1.1
# www.blender.org
o ID-0464-2EE13F53-5D0A-10BF-E053-CA2BA8C063B3
v 504563.562500 532277.687500 60.579815
v 504566.843750 532329.437500 60.579807
v 504589.500000 532323.187500 60.579811
v 504561.281250 532277.000000 69.399818
v 504563.562500 532277.687500 69.399818
v 504590.500000 532320.750000 60.579811
v 504566.843750 532329.437500 69.399811
v 504589.500000 532323.187500 69.399811
v 504562.750000 532317.312500 60.579811
v 504562.750000 532317.312500 69.399811
v 504558.156250 532303.750000 60.579811
v 504556.343750 532297.875000 69.399818
v 504558.156250 532303.750000 69.399818
v 504556.343750 532297.875000 60.579811
v 504550.312500 532281.875000 60.579811
v 504550.312500 532281.875000 69.399818
v 504561.281250 532277.000000 60.579815
v 504590.500000 532320.750000 69.399811
vn -0.0000 -0.0000 -1.0000
vn 0.2901 -0.9570 -0.0000
vn 0.8484 -0.5294 -0.0000
vn 0.8474 -0.5310 -0.0000
vn 0.9224 0.3862 -0.0000
vn 0.2657 0.9641 -0.0000
vn 0.2670 0.9637 -0.0000
vn -0.9450 0.3270 -0.0000
vn -0.9477 0.3190 -0.0000
vn -0.9460 0.3242 -0.0000
vn -0.9484 0.3171 -0.0000
vn -0.9555 0.2950 -0.0000
vn -0.9362 0.3516 -0.0000
vn -0.4052 -0.9142 -0.0000
vn -0.0000 -0.0000 1.0000
s 0
f 1//1 15//1 14//1
f 14//1 11//1 1//1
f 17//1 15//1 1//1
f 9//1 6//1 11//1
f 1//1 11//1 6//1
f 2//1 3//1 9//1
f 6//1 9//1 3//1
f 4//2 17//2 1//2
f 1//2 5//2 4//2
f 5//3 1//3 6//3
f 6//4 18//4 5//4
f 6//5 3//5 8//5
f 8//5 18//5 6//5
f 3//6 2//6 7//6
f 7//7 8//7 3//7
f 2//8 9//8 10//8
f 10//9 7//9 2//9
f 9//10 11//10 13//10
f 13//11 10//11 9//11
f 11//12 14//12 12//12
f 12//12 13//12 11//12
f 14//13 15//13 16//13
f 16//13 12//13 14//13
f 16//14 15//14 17//14
f 17//14 4//14 16//14
f 12//15 16//15 5//15
f 5//15 13//15 12//15
f 5//15 16//15 4//15
f 13//15 18//15 10//15
f 18//15 13//15 5//15
f 10//15 8//15 7//15
f 8//15 10//15 18//15
